<mxfile host="app.diagrams.net" modified="2022-11-17T12:22:13.464Z" agent="5.0 (Macintosh; Intel Mac OS X 10_15_7) AppleWebKit/537.36 (KHTML, like Gecko) Chrome/107.0.0.0 Safari/537.36" etag="SFcMy0MaRqRj5j-TnmUd" version="20.5.3" type="github">
  <diagram id="T4UDnfhCMoo4zJimxHuG" name="第 1 页">
    <mxGraphModel dx="1426" dy="769" grid="1" gridSize="10" guides="1" tooltips="1" connect="1" arrows="1" fold="1" page="1" pageScale="1" pageWidth="827" pageHeight="1169" math="0" shadow="0">
      <root>
        <mxCell id="0" />
        <mxCell id="1" parent="0" />
        <mxCell id="T2MhVrFw25erT-pWojM3-2" value="" style="sketch=0;outlineConnect=0;fontColor=#232F3E;gradientColor=none;fillColor=#232F3D;strokeColor=none;dashed=0;verticalLabelPosition=bottom;verticalAlign=top;align=center;html=1;fontSize=12;fontStyle=0;aspect=fixed;pointerEvents=1;shape=mxgraph.aws4.traditional_server;" vertex="1" parent="1">
          <mxGeometry x="100" y="180" width="45" height="78" as="geometry" />
        </mxCell>
        <mxCell id="T2MhVrFw25erT-pWojM3-16" style="edgeStyle=orthogonalEdgeStyle;rounded=0;orthogonalLoop=1;jettySize=auto;html=1;entryX=0.875;entryY=0.5;entryDx=0;entryDy=0;entryPerimeter=0;" edge="1" parent="1" source="T2MhVrFw25erT-pWojM3-4" target="T2MhVrFw25erT-pWojM3-8">
          <mxGeometry relative="1" as="geometry" />
        </mxCell>
        <mxCell id="T2MhVrFw25erT-pWojM3-4" value="Client" style="sketch=0;outlineConnect=0;fontColor=#232F3E;gradientColor=none;strokeColor=#232F3E;fillColor=#ffffff;dashed=0;verticalLabelPosition=bottom;verticalAlign=top;align=center;html=1;fontSize=12;fontStyle=0;aspect=fixed;shape=mxgraph.aws4.resourceIcon;resIcon=mxgraph.aws4.client;" vertex="1" parent="1">
          <mxGeometry x="434" y="160" width="60" height="60" as="geometry" />
        </mxCell>
        <mxCell id="T2MhVrFw25erT-pWojM3-18" style="edgeStyle=orthogonalEdgeStyle;rounded=0;orthogonalLoop=1;jettySize=auto;html=1;entryX=0.8;entryY=0.8;entryDx=0;entryDy=0;entryPerimeter=0;" edge="1" parent="1" source="T2MhVrFw25erT-pWojM3-5" target="T2MhVrFw25erT-pWojM3-8">
          <mxGeometry relative="1" as="geometry" />
        </mxCell>
        <mxCell id="T2MhVrFw25erT-pWojM3-5" value="Client" style="sketch=0;outlineConnect=0;fontColor=#232F3E;gradientColor=none;strokeColor=#232F3E;fillColor=#ffffff;dashed=0;verticalLabelPosition=bottom;verticalAlign=top;align=center;html=1;fontSize=12;fontStyle=0;aspect=fixed;shape=mxgraph.aws4.resourceIcon;resIcon=mxgraph.aws4.client;" vertex="1" parent="1">
          <mxGeometry x="424" y="340" width="60" height="60" as="geometry" />
        </mxCell>
        <mxCell id="T2MhVrFw25erT-pWojM3-17" style="edgeStyle=orthogonalEdgeStyle;rounded=0;orthogonalLoop=1;jettySize=auto;html=1;entryX=0.96;entryY=0.7;entryDx=0;entryDy=0;entryPerimeter=0;" edge="1" parent="1" source="T2MhVrFw25erT-pWojM3-6" target="T2MhVrFw25erT-pWojM3-8">
          <mxGeometry relative="1" as="geometry" />
        </mxCell>
        <mxCell id="T2MhVrFw25erT-pWojM3-6" value="Client" style="sketch=0;outlineConnect=0;fontColor=#232F3E;gradientColor=none;strokeColor=#232F3E;fillColor=#ffffff;dashed=0;verticalLabelPosition=bottom;verticalAlign=top;align=center;html=1;fontSize=12;fontStyle=0;aspect=fixed;shape=mxgraph.aws4.resourceIcon;resIcon=mxgraph.aws4.client;" vertex="1" parent="1">
          <mxGeometry x="434" y="258" width="60" height="60" as="geometry" />
        </mxCell>
        <mxCell id="T2MhVrFw25erT-pWojM3-15" style="edgeStyle=orthogonalEdgeStyle;rounded=0;orthogonalLoop=1;jettySize=auto;html=1;entryX=0.88;entryY=0.25;entryDx=0;entryDy=0;entryPerimeter=0;" edge="1" parent="1" source="T2MhVrFw25erT-pWojM3-7" target="T2MhVrFw25erT-pWojM3-8">
          <mxGeometry relative="1" as="geometry" />
        </mxCell>
        <mxCell id="T2MhVrFw25erT-pWojM3-7" value="Client" style="sketch=0;outlineConnect=0;fontColor=#232F3E;gradientColor=none;strokeColor=#232F3E;fillColor=#ffffff;dashed=0;verticalLabelPosition=bottom;verticalAlign=top;align=center;html=1;fontSize=12;fontStyle=0;aspect=fixed;shape=mxgraph.aws4.resourceIcon;resIcon=mxgraph.aws4.client;" vertex="1" parent="1">
          <mxGeometry x="414" y="80" width="60" height="60" as="geometry" />
        </mxCell>
        <mxCell id="T2MhVrFw25erT-pWojM3-13" style="edgeStyle=orthogonalEdgeStyle;rounded=0;orthogonalLoop=1;jettySize=auto;html=1;" edge="1" parent="1" source="T2MhVrFw25erT-pWojM3-8" target="T2MhVrFw25erT-pWojM3-2">
          <mxGeometry relative="1" as="geometry" />
        </mxCell>
        <mxCell id="T2MhVrFw25erT-pWojM3-8" value="Internet网络" style="ellipse;shape=cloud;whiteSpace=wrap;html=1;strokeWidth=3;" vertex="1" parent="1">
          <mxGeometry x="220" y="189" width="90" height="60" as="geometry" />
        </mxCell>
      </root>
    </mxGraphModel>
  </diagram>
</mxfile>
